<svg id="svg" version="1.1" xmlns="http://www.w3.org/2000/svg" xmlns:xlink="http://www.w3.org/1999/xlink" width="400" height="400" viewBox="0, 0, 400,400"><g id="svgg"><path id="path0" d="M199.600 169.320 L 199.600 268.800 220.700 268.737 C 234.737 268.694,240.595 268.564,238.200 268.346 C 233.292 267.899,233.536 267.959,234.055 267.333 C 234.342 266.988,234.353 266.800,234.086 266.800 C 233.860 266.800,233.769 266.442,233.883 266.004 C 233.997 265.567,234.224 265.292,234.388 265.392 C 234.551 265.493,234.600 265.133,234.496 264.593 C 234.393 264.052,234.179 263.689,234.021 263.787 C 233.863 263.885,233.733 263.711,233.733 263.400 C 233.733 263.089,233.879 262.925,234.057 263.035 C 234.235 263.145,234.318 262.411,234.243 261.404 C 234.144 260.078,234.308 259.316,234.840 258.640 C 235.597 257.678,235.496 257.112,234.628 257.445 C 234.356 257.549,234.133 257.365,234.133 257.035 C 234.133 256.705,234.283 256.528,234.467 256.641 C 234.650 256.755,234.800 256.581,234.800 256.256 C 234.800 255.931,234.909 255.381,235.043 255.033 C 235.199 254.626,235.067 254.400,234.673 254.400 C 234.125 254.400,234.125 254.272,234.677 253.166 C 235.090 252.337,235.160 251.800,234.889 251.529 C 234.618 251.258,234.664 250.782,235.029 250.078 C 235.413 249.338,235.444 248.951,235.135 248.760 C 234.875 248.599,234.835 248.268,235.035 247.945 C 235.221 247.645,235.379 246.320,235.387 245.000 C 235.397 243.091,235.523 242.622,236.000 242.706 C 236.485 242.791,236.473 242.711,235.937 242.289 C 235.455 241.909,235.379 241.580,235.659 241.080 C 235.870 240.703,235.914 240.184,235.755 239.927 C 235.419 239.383,235.369 237.108,235.682 236.570 C 235.800 236.366,235.846 235.885,235.784 235.500 C 235.722 235.115,235.880 234.797,236.135 234.794 C 236.430 234.790,236.454 234.680,236.200 234.494 C 235.567 234.029,235.503 232.801,236.076 232.083 C 236.364 231.721,235.561 232.454,234.291 233.713 C 233.022 234.971,231.762 235.999,231.491 235.997 C 230.952 235.995,223.484 207.604,223.523 205.703 C 223.535 205.097,223.355 203.988,223.122 203.241 C 222.889 202.493,222.560 200.873,222.391 199.641 C 222.222 198.408,221.694 195.240,221.217 192.600 C 220.741 189.960,220.201 186.689,220.018 185.331 C 219.835 183.973,219.565 182.667,219.418 182.429 C 219.271 182.191,219.082 181.232,218.999 180.298 C 218.600 175.812,216.845 164.512,216.226 162.447 C 216.120 162.091,215.932 160.923,215.809 159.850 C 215.686 158.778,215.477 157.725,215.344 157.510 C 215.212 157.296,214.966 156.103,214.797 154.860 C 214.629 153.617,214.114 150.980,213.654 149.000 C 212.633 144.607,212.620 143.161,213.546 136.879 L 214.272 131.958 212.539 130.713 C 210.645 129.353,209.731 128.180,209.440 126.736 C 209.336 126.221,209.053 124.900,208.810 123.800 C 208.567 122.700,206.618 110.331,204.478 96.314 C 202.244 81.674,200.378 70.618,200.094 70.334 C 199.702 69.942,199.600 90.374,199.600 169.320 M59.776 127.240 C 59.471 127.733,57.739 125.967,122.625 191.306 L 169.404 238.412 172.652 223.109 C 176.203 206.382,176.117 207.265,174.287 206.227 C 172.068 204.967,167.663 201.958,167.172 201.366 C 166.914 201.055,166.524 200.800,166.307 200.800 C 166.089 200.800,165.051 200.080,164.000 199.200 C 162.949 198.320,161.959 197.600,161.800 197.600 C 161.641 197.600,160.651 196.880,159.600 196.000 C 158.549 195.120,157.552 194.400,157.386 194.400 C 157.219 194.400,156.259 193.725,155.252 192.900 C 154.245 192.075,153.326 191.424,153.211 191.454 C 153.095 191.483,152.190 190.841,151.200 190.028 C 150.210 189.215,145.440 185.778,140.600 182.391 C 135.760 179.004,128.470 173.801,124.400 170.830 C 110.449 160.645,111.244 161.155,109.770 161.432 C 108.809 161.612,107.842 161.403,106.237 160.668 C 103.999 159.644,103.506 159.318,101.744 157.700 C 101.205 157.205,100.676 156.800,100.568 156.800 C 100.370 156.800,99.487 156.132,82.600 143.190 C 77.320 139.143,71.830 134.952,70.400 133.875 C 68.970 132.799,67.849 131.743,67.910 131.529 C 67.970 131.315,67.835 131.255,67.610 131.394 C 67.384 131.533,67.200 131.457,67.200 131.224 C 67.200 130.991,67.000 130.800,66.756 130.800 C 66.511 130.800,65.476 130.106,64.456 129.258 C 61.620 126.903,60.328 126.346,59.776 127.240 " stroke="none" fill="#7e50da" fill-rule="evenodd"></path><path id="path1" d="M60.362 128.882 C 60.641 129.258,60.750 129.757,60.605 129.992 C 60.459 130.227,60.579 130.370,60.870 130.310 C 61.163 130.249,61.375 130.511,61.345 130.896 C 61.315 131.278,61.435 131.502,61.612 131.393 C 62.081 131.103,65.662 136.377,65.344 136.890 C 65.193 137.135,65.261 137.210,65.500 137.062 C 66.046 136.725,68.914 140.692,68.551 141.280 C 68.397 141.528,68.457 141.612,68.686 141.470 C 69.128 141.197,72.533 145.774,72.533 146.641 C 72.533 146.929,72.655 147.090,72.803 146.998 C 72.951 146.906,73.461 147.357,73.936 148.000 C 74.893 149.293,75.041 149.796,74.338 149.362 C 74.050 149.184,73.985 149.252,74.166 149.545 C 74.325 149.802,74.603 149.922,74.784 149.810 C 75.155 149.580,76.533 151.514,76.533 152.265 C 76.533 152.535,76.674 152.721,76.846 152.678 C 77.337 152.555,82.852 160.393,82.582 160.829 C 82.449 161.044,82.523 161.170,82.745 161.110 C 83.225 160.979,90.739 171.361,92.019 173.923 C 93.182 176.253,92.824 183.757,91.586 182.991 C 91.404 182.879,91.125 182.998,90.966 183.255 C 90.785 183.548,90.850 183.616,91.138 183.438 C 91.984 182.915,91.616 183.639,89.872 185.930 C 87.222 189.411,83.108 195.479,81.216 198.697 C 80.279 200.290,79.354 201.495,79.161 201.376 C 78.967 201.256,78.895 201.393,79.000 201.679 C 79.257 202.382,75.844 208.502,75.413 208.110 C 75.225 207.940,75.187 208.002,75.328 208.249 C 75.469 208.496,74.530 211.106,73.242 214.049 C 68.692 224.446,65.416 235.199,63.581 245.766 C 61.827 255.867,60.615 256.727,43.800 259.807 C 35.128 261.396,12.890 265.516,5.800 266.848 C 3.380 267.302,1.226 267.840,1.014 268.043 C 0.621 268.419,97.978 268.480,101.727 268.107 C 103.216 267.959,103.602 267.781,103.426 267.324 C 103.286 266.959,103.390 266.803,103.700 266.917 C 103.975 267.017,104.155 267.302,104.100 267.550 C 104.045 267.797,104.270 268.000,104.600 268.000 C 105.321 268.000,105.343 267.818,104.737 266.848 C 104.142 265.895,104.598 264.637,105.424 264.954 C 105.764 265.084,105.940 265.027,105.816 264.826 C 105.692 264.625,105.907 264.364,106.295 264.247 C 106.683 264.129,106.387 264.089,105.638 264.156 C 104.426 264.266,104.356 264.222,104.997 263.753 C 105.394 263.463,105.871 263.320,106.059 263.436 C 106.247 263.552,106.400 263.457,106.400 263.224 C 106.400 262.991,106.102 262.800,105.738 262.800 C 105.143 262.800,105.150 262.718,105.802 261.998 C 106.202 261.556,106.410 261.076,106.264 260.931 C 106.119 260.786,106.000 260.887,106.000 261.157 C 106.000 261.427,105.800 261.524,105.555 261.372 C 105.311 261.221,104.934 261.346,104.718 261.649 C 104.416 262.072,104.378 262.034,104.556 261.485 C 104.690 261.067,104.556 260.681,104.233 260.557 C 103.649 260.333,103.614 259.734,104.135 258.900 C 104.307 258.625,104.325 258.202,104.175 257.960 C 103.978 257.641,104.130 257.641,104.727 257.961 C 105.336 258.287,105.626 258.281,105.838 257.939 C 106.015 257.652,105.948 257.585,105.662 257.762 C 105.408 257.919,105.200 257.884,105.200 257.686 C 105.200 257.170,106.612 255.959,106.932 256.199 C 107.080 256.310,107.105 256.275,106.988 256.122 C 106.872 255.969,106.498 255.803,106.157 255.753 C 105.074 255.594,104.400 255.238,104.400 254.825 C 104.400 254.605,104.652 254.522,104.960 254.640 C 105.267 254.758,105.655 254.634,105.821 254.365 C 106.014 254.054,105.957 253.979,105.666 254.159 C 105.371 254.342,105.293 254.222,105.447 253.821 C 105.578 253.479,105.981 253.214,106.343 253.232 C 106.721 253.250,106.797 253.346,106.522 253.457 C 106.260 253.564,106.144 253.909,106.264 254.224 C 106.648 255.224,107.137 254.445,106.934 253.156 C 106.783 252.199,106.860 251.988,107.269 252.234 C 107.705 252.496,107.708 252.440,107.285 251.918 C 106.477 250.921,106.347 249.600,107.056 249.600 C 107.392 249.600,107.595 249.386,107.508 249.125 C 107.289 248.468,106.349 248.204,106.487 248.839 C 106.549 249.121,106.264 249.425,105.853 249.515 C 105.385 249.616,105.207 249.513,105.376 249.238 C 105.727 248.671,107.130 248.496,90.096 251.140 C 77.521 253.091,75.219 253.355,75.361 252.826 C 75.454 252.482,75.642 251.480,75.778 250.600 C 76.310 247.165,78.142 239.640,78.406 239.803 C 78.559 239.898,78.606 239.486,78.511 238.888 C 78.405 238.222,78.470 237.985,78.678 238.277 C 78.891 238.575,79.027 238.200,79.041 237.277 C 79.069 235.426,81.135 228.712,81.589 228.993 C 81.774 229.108,81.824 228.813,81.700 228.338 C 81.532 227.695,81.608 227.558,81.999 227.799 C 82.347 228.015,82.427 227.968,82.237 227.659 C 81.855 227.041,82.838 224.376,83.334 224.683 C 83.551 224.817,83.596 224.717,83.435 224.457 C 82.978 223.718,85.452 217.462,86.054 217.833 C 86.239 217.948,86.296 217.795,86.181 217.494 C 85.865 216.671,91.108 206.296,91.666 206.640 C 91.950 206.816,92.014 206.746,91.835 206.457 C 91.447 205.829,93.940 201.516,94.493 201.858 C 94.751 202.017,94.807 201.935,94.634 201.655 C 94.297 201.110,95.910 198.297,96.389 198.593 C 96.565 198.702,96.685 198.478,96.655 198.096 C 96.625 197.711,96.837 197.449,97.130 197.510 C 97.421 197.570,97.549 197.441,97.413 197.222 C 97.164 196.818,100.349 191.672,101.375 190.821 C 101.829 190.444,102.577 191.292,105.393 195.379 C 107.297 198.141,109.032 200.400,109.251 200.400 C 109.469 200.400,109.536 200.220,109.400 200.000 C 109.264 199.780,109.343 199.600,109.576 199.600 C 110.140 199.600,110.113 200.127,109.520 200.720 C 109.147 201.093,109.236 201.200,109.920 201.200 C 110.404 201.200,110.800 201.391,110.800 201.624 C 110.800 201.857,110.620 201.936,110.400 201.800 C 110.180 201.664,110.000 201.743,110.000 201.976 C 110.000 202.516,110.674 202.528,111.004 201.993 C 111.142 201.770,111.451 201.708,111.689 201.855 C 111.936 202.008,112.010 201.939,111.859 201.696 C 111.714 201.461,111.821 201.177,112.098 201.066 C 112.374 200.954,112.105 200.849,111.500 200.832 C 110.895 200.814,110.400 200.608,110.400 200.373 C 110.400 200.138,110.736 200.053,111.150 200.184 C 111.703 200.360,111.961 200.182,112.131 199.511 C 112.343 198.667,112.320 198.653,111.819 199.324 C 111.521 199.722,111.181 199.894,111.065 199.705 C 110.790 199.260,111.239 198.581,112.000 198.292 C 112.478 198.110,112.458 198.057,111.900 198.032 C 111.515 198.014,111.200 197.809,111.200 197.576 C 111.200 197.343,111.001 197.276,110.759 197.426 C 110.516 197.576,110.606 197.257,110.960 196.717 C 111.314 196.178,111.477 195.610,111.323 195.456 C 110.795 194.928,110.851 193.862,111.452 193.031 C 111.848 192.485,112.028 192.406,111.980 192.800 C 111.855 193.807,111.984 194.400,112.327 194.400 C 112.507 194.400,112.604 193.762,112.543 192.981 C 112.452 191.834,112.600 191.495,113.315 191.207 C 113.802 191.011,113.953 190.839,113.651 190.825 C 113.258 190.807,113.220 190.658,113.517 190.300 C 113.828 189.925,113.687 189.785,112.951 189.741 C 112.187 189.696,112.066 189.798,112.404 190.205 C 112.728 190.596,112.593 190.970,111.865 191.699 L 110.893 192.671 110.946 191.787 C 110.978 191.257,111.201 190.979,111.500 191.094 C 111.777 191.200,112.000 190.988,112.000 190.619 C 112.000 190.253,111.822 190.063,111.605 190.197 C 111.384 190.334,111.307 190.185,111.432 189.861 C 111.554 189.542,111.449 189.154,111.198 188.999 C 110.891 188.809,111.015 188.525,111.577 188.131 C 112.037 187.809,112.291 187.347,112.141 187.105 C 111.964 186.818,112.109 186.756,112.555 186.927 C 112.985 187.092,113.144 187.034,112.982 186.770 C 112.839 186.539,113.017 186.023,113.378 185.624 C 113.976 184.964,113.977 184.877,113.396 184.654 C 113.024 184.511,112.861 184.575,113.005 184.808 C 113.140 185.027,112.970 185.488,112.626 185.832 C 111.892 186.565,111.857 186.428,112.406 184.985 C 112.649 184.346,113.026 184.001,113.347 184.124 C 113.918 184.343,113.936 182.574,113.368 182.065 C 113.205 181.919,113.183 182.109,113.319 182.487 C 113.454 182.865,113.393 183.281,113.183 183.411 C 112.972 183.541,112.800 183.446,112.800 183.200 C 112.800 182.954,112.592 182.881,112.338 183.038 C 112.065 183.207,111.984 183.149,112.141 182.896 C 112.286 182.661,112.269 182.392,112.102 182.300 C 111.936 182.207,112.025 182.186,112.300 182.253 C 113.757 182.608,111.126 179.785,92.531 161.036 C 67.070 135.364,59.721 128.019,60.362 128.882 M67.200 131.325 C 67.200 131.424,67.861 132.009,68.668 132.625 C 69.476 133.241,70.011 133.541,69.856 133.291 C 69.540 132.779,67.200 131.047,67.200 131.325 M75.200 137.385 C 75.200 137.466,75.920 138.103,76.800 138.800 C 77.681 139.498,78.301 139.828,78.178 139.534 C 77.975 139.046,75.200 137.043,75.200 137.385 M84.833 144.904 C 84.925 144.962,85.405 145.350,85.900 145.766 C 86.395 146.183,86.800 146.419,86.800 146.291 C 86.800 145.887,85.563 144.800,85.105 144.800 C 84.864 144.800,84.742 144.847,84.833 144.904 M91.400 149.878 C 92.657 151.089,95.599 153.244,95.591 152.948 C 95.587 152.757,94.834 152.060,93.919 151.400 C 92.025 150.034,90.783 149.283,91.400 149.878 M114.876 161.050 C 114.676 161.408,114.037 161.700,113.456 161.700 C 112.064 161.700,112.115 162.185,113.571 162.788 C 114.215 163.055,114.840 163.527,114.959 163.837 C 115.078 164.146,115.485 164.400,115.864 164.400 C 116.497 164.400,116.494 164.357,115.826 163.868 C 115.198 163.409,115.168 163.204,115.608 162.368 C 116.104 161.424,116.097 161.418,115.327 162.100 C 114.425 162.899,114.000 162.988,114.000 162.376 C 114.000 162.143,114.154 162.048,114.342 162.164 C 114.529 162.280,114.885 161.931,115.133 161.387 C 115.634 160.287,115.443 160.036,114.876 161.050 M111.784 188.427 C 111.435 188.991,111.962 189.502,112.322 188.948 C 112.475 188.713,112.870 188.417,113.200 188.292 C 113.608 188.136,113.520 188.053,112.924 188.032 C 112.442 188.014,111.929 188.192,111.784 188.427 M154.400 192.125 C 154.400 192.224,155.061 192.809,155.868 193.425 C 156.676 194.041,157.211 194.341,157.056 194.091 C 156.740 193.579,154.400 191.847,154.400 192.125 M111.800 195.933 C 111.424 196.310,111.599 197.600,112.027 197.600 C 112.280 197.600,112.344 197.254,112.184 196.750 C 112.012 196.207,112.064 195.992,112.330 196.156 C 112.558 196.298,112.839 196.260,112.955 196.073 C 113.176 195.715,112.143 195.590,111.800 195.933 M164.962 199.900 C 165.381 200.395,165.891 200.800,166.095 200.800 C 166.299 200.800,167.216 201.406,168.133 202.147 C 170.259 203.865,172.077 204.867,171.251 203.865 C 170.949 203.499,170.518 203.200,170.292 203.200 C 170.067 203.200,169.114 202.570,168.174 201.800 C 167.234 201.030,166.330 200.400,166.164 200.400 C 165.999 200.400,165.489 200.085,165.031 199.700 C 164.201 199.001,164.201 199.001,164.962 199.900 M106.800 258.224 C 106.800 258.567,106.622 258.737,106.405 258.603 C 106.176 258.461,106.112 258.627,106.254 258.996 C 106.531 259.719,106.524 259.723,107.160 258.500 C 107.465 257.915,107.483 257.600,107.214 257.600 C 106.986 257.600,106.800 257.881,106.800 258.224 M104.800 259.236 C 104.800 259.462,104.575 259.533,104.300 259.394 C 104.025 259.255,104.149 259.424,104.576 259.770 C 105.004 260.117,105.499 260.400,105.676 260.400 C 106.248 260.400,106.021 259.294,105.400 259.055 C 105.070 258.929,104.800 259.010,104.800 259.236 M104.800 266.300 C 104.800 266.575,104.946 266.800,105.124 266.800 C 105.301 266.800,105.755 266.575,106.131 266.300 C 106.744 265.851,106.711 265.800,105.807 265.800 C 105.253 265.800,104.800 266.025,104.800 266.300 " stroke="none" fill="#43349e" fill-rule="evenodd"></path><path id="path2" d="M287.475 180.205 C 234.336 233.615,234.610 233.326,236.200 234.494 C 236.454 234.680,236.430 234.790,236.135 234.794 C 235.880 234.797,235.722 235.115,235.784 235.500 C 235.846 235.885,235.806 236.357,235.695 236.548 C 235.363 237.122,235.360 240.348,235.692 240.143 C 236.110 239.885,236.070 240.469,235.623 241.177 C 235.373 241.572,235.469 241.921,235.929 242.283 C 236.465 242.705,236.479 242.790,236.000 242.706 C 235.523 242.622,235.397 243.091,235.387 245.000 C 235.379 246.320,235.221 247.645,235.035 247.945 C 234.835 248.268,234.875 248.599,235.135 248.760 C 235.444 248.951,235.413 249.338,235.029 250.078 C 234.664 250.782,234.618 251.258,234.889 251.529 C 235.160 251.800,235.090 252.337,234.677 253.166 C 234.125 254.272,234.125 254.400,234.673 254.400 C 235.067 254.400,235.199 254.626,235.043 255.033 C 234.909 255.381,234.800 255.931,234.800 256.256 C 234.800 256.581,234.650 256.755,234.467 256.641 C 234.283 256.528,234.133 256.705,234.133 257.035 C 234.133 257.365,234.356 257.549,234.628 257.445 C 235.496 257.112,235.597 257.678,234.840 258.640 C 234.308 259.316,234.144 260.078,234.243 261.404 C 234.318 262.411,234.235 263.145,234.057 263.035 C 233.879 262.925,233.733 263.089,233.733 263.400 C 233.733 263.711,233.863 263.885,234.021 263.787 C 234.179 263.689,234.393 264.052,234.496 264.593 C 234.600 265.133,234.551 265.493,234.388 265.392 C 234.224 265.292,233.997 265.567,233.883 266.004 C 233.769 266.442,233.860 266.800,234.086 266.800 C 234.353 266.800,234.342 266.988,234.055 267.333 C 233.536 267.959,233.287 267.902,238.252 268.304 L 241.903 268.600 251.028 256.000 C 259.056 244.916,289.709 201.094,301.745 183.494 C 304.117 180.026,306.225 177.292,306.429 177.418 C 306.633 177.544,306.800 177.334,306.800 176.952 C 306.800 175.959,307.701 173.600,308.080 173.600 C 308.256 173.600,308.400 173.322,308.400 172.983 C 308.400 172.350,308.737 171.846,310.300 170.144 C 310.795 169.605,311.200 169.060,311.200 168.933 C 311.200 168.676,314.805 163.516,315.205 163.200 C 315.344 163.090,315.583 162.730,315.736 162.400 C 315.889 162.070,316.506 161.147,317.107 160.348 C 317.708 159.550,319.266 157.390,320.569 155.548 C 321.872 153.707,323.087 152.140,323.269 152.067 C 323.451 151.993,323.600 151.710,323.600 151.436 C 323.600 151.163,324.044 150.522,324.588 150.012 C 325.131 149.501,325.490 148.945,325.385 148.776 C 325.281 148.607,325.344 148.408,325.525 148.334 C 325.785 148.229,330.505 141.716,333.695 137.063 C 333.973 136.657,334.605 135.847,335.100 135.263 C 335.594 134.678,335.999 134.057,336.000 133.883 C 336.000 133.709,336.356 133.184,336.792 132.717 C 338.150 131.259,339.687 128.860,339.540 128.427 C 339.463 128.199,316.034 151.499,287.475 180.205 M397.900 267.678 C 398.383 268.161,398.917 268.416,399.088 268.245 C 399.259 268.074,399.050 267.679,398.623 267.367 C 397.418 266.486,396.922 266.699,397.900 267.678 " stroke="none" fill="#596fdb" fill-rule="evenodd"></path><path id="path3" d="M59.600 128.331 C 59.600 128.838,62.397 132.916,62.895 133.133 C 63.063 133.207,63.200 133.437,63.200 133.645 C 63.200 133.853,63.875 134.904,64.700 135.981 C 65.525 137.057,66.830 138.864,67.600 139.996 C 68.370 141.128,70.088 143.527,71.418 145.327 C 72.749 147.127,75.255 150.670,76.987 153.200 C 79.714 157.181,80.596 158.403,82.327 160.600 C 82.501 160.820,83.880 162.800,85.392 165.000 C 86.904 167.200,88.562 169.540,89.077 170.200 C 89.591 170.860,90.151 171.580,90.320 171.800 C 93.498 175.924,93.084 180.852,89.128 186.014 C 79.469 198.615,70.720 215.861,66.812 230.000 C 66.113 232.530,65.197 235.747,64.777 237.148 C 64.356 238.550,63.611 242.150,63.121 245.148 C 62.514 248.869,62.004 250.846,61.515 251.375 C 61.122 251.802,60.800 252.338,60.800 252.568 C 60.800 254.504,56.449 256.767,50.800 257.770 C 48.930 258.102,46.140 258.640,44.600 258.966 C 43.060 259.292,41.260 259.671,40.600 259.808 C 39.940 259.946,36.430 260.568,32.800 261.192 C 29.170 261.816,22.870 262.969,18.800 263.756 C 14.730 264.543,9.276 265.548,6.680 265.990 C 1.861 266.810,0.400 267.292,0.400 268.063 C 0.400 268.362,0.557 268.370,0.900 268.090 C 1.175 267.866,3.380 267.309,5.800 266.852 C 11.961 265.689,34.234 261.560,43.800 259.807 C 60.615 256.727,61.827 255.867,63.581 245.766 C 67.101 225.499,75.316 206.132,87.643 189.040 C 92.488 182.322,92.448 182.403,92.692 178.849 C 92.983 174.595,93.412 175.326,77.711 153.351 C 70.341 143.038,63.252 133.084,61.956 131.231 C 60.660 129.379,59.600 128.073,59.600 128.331 M184.557 132.567 C 184.463 132.812,183.223 133.018,181.695 133.043 C 178.041 133.100,172.236 134.150,164.800 136.099 C 161.390 136.993,158.122 137.741,157.538 137.762 C 156.954 137.783,156.572 137.954,156.688 138.143 C 156.805 138.331,156.473 138.354,155.950 138.193 C 155.428 138.032,155.137 138.045,155.304 138.221 C 155.634 138.568,147.630 141.666,147.157 141.373 C 146.998 141.275,146.808 141.360,146.734 141.561 C 146.660 141.762,146.240 141.988,145.800 142.063 C 145.360 142.139,144.760 142.427,144.468 142.704 C 144.175 142.981,143.770 143.105,143.568 142.980 C 143.365 142.855,143.200 142.973,143.200 143.243 C 143.200 143.513,143.095 143.628,142.966 143.499 C 142.837 143.370,141.774 143.790,140.604 144.432 C 139.434 145.075,138.202 145.600,137.867 145.600 C 137.531 145.600,136.977 145.880,136.636 146.222 C 136.294 146.564,135.619 146.919,135.136 147.012 C 134.654 147.105,134.156 147.325,134.029 147.500 C 133.903 147.676,132.630 148.429,131.200 149.175 C 128.457 150.607,120.493 155.791,115.826 159.183 C 114.300 160.293,112.715 161.200,112.302 161.200 C 111.890 161.200,111.650 161.357,111.768 161.548 C 112.121 162.119,114.466 161.658,115.061 160.901 C 115.543 160.289,115.554 160.338,115.148 161.287 C 114.892 161.886,114.548 162.292,114.383 162.190 C 114.219 162.088,113.977 162.283,113.846 162.623 C 113.584 163.306,114.084 163.114,115.358 162.039 C 116.083 161.428,116.094 161.443,115.608 162.368 C 115.177 163.189,115.197 163.409,115.743 163.808 C 116.098 164.067,116.293 164.374,116.177 164.490 C 116.060 164.606,118.628 166.618,121.883 168.962 C 125.137 171.305,127.024 172.528,126.075 171.679 L 124.350 170.135 127.475 167.990 C 129.194 166.811,130.690 165.725,130.800 165.577 C 130.910 165.429,131.765 164.920,132.700 164.446 C 133.635 163.972,134.400 163.397,134.400 163.168 C 134.400 162.940,134.557 162.850,134.748 162.968 C 134.940 163.087,135.508 162.827,136.010 162.392 C 136.512 161.956,137.165 161.600,137.461 161.600 C 137.758 161.600,138.000 161.456,138.000 161.280 C 138.000 161.105,138.633 160.732,139.406 160.452 C 140.180 160.173,140.709 159.776,140.583 159.572 C 140.456 159.367,140.543 159.200,140.776 159.200 C 141.492 159.200,141.780 159.077,142.312 158.546 C 142.593 158.264,143.086 158.135,143.408 158.258 C 143.741 158.386,144.103 158.196,144.248 157.819 C 144.389 157.451,144.758 157.252,145.072 157.372 C 145.424 157.507,145.536 157.420,145.365 157.144 C 145.199 156.874,145.310 156.771,145.644 156.883 C 145.950 156.986,146.398 156.801,146.640 156.473 C 146.882 156.144,147.512 155.828,148.040 155.771 C 148.568 155.714,149.146 155.652,149.324 155.633 C 149.502 155.615,149.552 155.446,149.436 155.258 C 149.129 154.762,151.073 153.976,151.861 154.279 C 152.279 154.439,152.433 154.377,152.271 154.114 C 151.939 153.578,154.188 152.622,154.838 153.023 C 155.133 153.206,155.220 153.156,155.060 152.897 C 154.465 151.934,171.104 146.549,180.100 144.792 C 181.365 144.545,182.400 144.165,182.400 143.948 C 182.400 143.731,182.625 143.688,182.900 143.853 C 183.240 144.057,183.224 143.937,182.851 143.477 C 182.549 143.105,182.450 142.800,182.631 142.800 C 182.812 142.800,182.765 142.605,182.526 142.366 C 182.040 141.880,182.292 140.400,182.861 140.400 C 183.078 140.400,183.071 140.693,182.844 141.117 C 182.533 141.699,182.624 141.847,183.325 141.899 C 183.801 141.935,183.994 141.838,183.755 141.682 C 183.248 141.353,183.177 140.000,183.667 140.000 C 183.850 140.000,183.986 139.685,183.968 139.300 C 183.949 138.878,183.856 138.799,183.734 139.102 C 183.623 139.379,183.367 139.503,183.166 139.379 C 182.965 139.255,182.800 139.343,182.800 139.576 C 182.800 139.809,182.589 140.000,182.330 140.000 C 182.072 140.000,182.297 139.521,182.830 138.936 C 183.538 138.159,183.616 137.938,183.117 138.117 C 182.519 138.331,182.491 138.237,182.894 137.354 C 183.217 136.645,183.578 136.406,184.116 136.546 C 184.536 136.656,184.773 136.640,184.643 136.510 C 184.513 136.380,184.630 135.997,184.903 135.660 C 185.251 135.231,185.258 135.132,184.928 135.330 C 184.668 135.486,184.313 135.385,184.139 135.107 C 183.691 134.390,183.606 133.557,184.006 133.804 C 184.191 133.918,184.458 133.646,184.600 133.200 C 184.742 132.754,185.012 132.484,185.201 132.601 C 185.390 132.717,185.639 132.660,185.755 132.473 C 185.870 132.286,185.686 132.133,185.344 132.133 C 185.003 132.133,184.649 132.328,184.557 132.567 M128.000 173.089 C 128.000 173.592,129.143 174.590,129.412 174.321 C 129.518 174.215,129.244 173.802,128.802 173.402 C 128.361 173.003,128.000 172.862,128.000 173.089 M130.007 174.630 C 130.011 174.834,131.406 175.953,133.107 177.117 C 135.940 179.056,136.049 179.099,134.400 177.629 C 133.410 176.746,132.432 176.019,132.226 176.012 C 132.020 176.005,131.435 175.609,130.926 175.130 C 130.417 174.652,130.003 174.427,130.007 174.630 M112.649 181.784 C 112.804 182.188,112.697 182.360,112.345 182.270 C 112.045 182.194,111.936 182.207,112.102 182.300 C 112.269 182.392,112.286 182.661,112.141 182.896 C 111.984 183.149,112.065 183.207,112.338 183.038 C 112.592 182.881,112.800 182.954,112.800 183.200 C 112.800 183.446,112.963 183.546,113.162 183.423 C 113.574 183.169,113.283 181.698,112.756 181.373 C 112.565 181.255,112.517 181.440,112.649 181.784 M113.767 183.265 C 113.849 184.020,113.726 184.270,113.347 184.124 C 113.026 184.001,112.649 184.346,112.406 184.985 C 111.857 186.428,111.892 186.565,112.626 185.832 C 112.970 185.488,113.140 185.027,113.005 184.808 C 112.861 184.575,113.024 184.511,113.396 184.654 C 113.977 184.877,113.976 184.964,113.378 185.624 C 113.017 186.023,112.839 186.539,112.982 186.770 C 113.144 187.034,112.985 187.092,112.555 186.927 C 112.109 186.756,111.964 186.818,112.141 187.105 C 112.291 187.347,112.037 187.809,111.577 188.131 C 111.015 188.525,110.891 188.809,111.198 188.999 C 111.449 189.154,111.554 189.542,111.432 189.861 C 111.307 190.185,111.384 190.334,111.605 190.197 C 111.822 190.063,112.000 190.253,112.000 190.619 C 112.000 190.988,111.777 191.200,111.500 191.094 C 111.201 190.979,110.978 191.257,110.946 191.787 L 110.893 192.671 111.865 191.699 C 112.593 190.970,112.728 190.596,112.404 190.205 C 112.066 189.798,112.187 189.696,112.951 189.741 C 113.687 189.785,113.828 189.925,113.517 190.300 C 113.220 190.658,113.258 190.807,113.651 190.825 C 113.953 190.839,113.802 191.011,113.315 191.207 C 112.600 191.495,112.452 191.834,112.543 192.981 C 112.604 193.762,112.507 194.400,112.327 194.400 C 111.984 194.400,111.855 193.807,111.980 192.800 C 112.028 192.406,111.848 192.485,111.452 193.031 C 110.851 193.862,110.795 194.928,111.323 195.456 C 111.477 195.610,111.314 196.178,110.960 196.717 C 110.606 197.257,110.516 197.576,110.759 197.426 C 111.001 197.276,111.200 197.343,111.200 197.576 C 111.200 197.809,111.515 198.014,111.900 198.032 C 112.458 198.057,112.478 198.110,112.000 198.292 C 111.239 198.581,110.790 199.260,111.065 199.705 C 111.181 199.894,111.521 199.722,111.819 199.324 C 112.320 198.653,112.343 198.667,112.131 199.511 C 111.961 200.182,111.703 200.360,111.150 200.184 C 110.736 200.053,110.400 200.138,110.400 200.373 C 110.400 200.608,110.895 200.814,111.500 200.832 C 112.105 200.849,112.374 200.954,112.098 201.066 C 111.821 201.177,111.678 201.403,111.780 201.567 C 111.882 201.732,111.703 201.867,111.382 201.867 C 111.062 201.867,110.800 201.717,110.800 201.533 C 110.800 201.350,110.485 201.205,110.100 201.212 C 109.439 201.224,109.439 201.247,110.108 201.637 C 110.498 201.864,110.694 202.249,110.543 202.493 C 110.364 202.781,110.506 202.845,110.950 202.674 C 111.376 202.511,111.608 202.598,111.569 202.906 C 111.439 203.915,111.612 204.440,111.995 204.203 C 112.213 204.068,112.308 204.193,112.207 204.479 C 112.106 204.766,118.022 213.640,125.354 224.200 C 132.686 234.760,138.639 243.457,138.583 243.526 C 138.483 243.650,108.253 248.400,107.569 248.400 C 107.380 248.400,107.329 248.670,107.455 249.000 C 107.603 249.385,107.447 249.600,107.019 249.600 C 106.653 249.600,106.464 249.420,106.600 249.200 C 106.736 248.980,106.577 248.800,106.247 248.800 C 105.260 248.800,105.142 249.491,106.087 249.739 C 106.570 249.865,106.837 250.096,106.681 250.252 C 106.525 250.408,106.686 250.978,107.040 251.517 C 107.394 252.057,107.470 252.367,107.211 252.207 C 106.873 251.998,106.794 252.268,106.934 253.156 C 107.137 254.445,106.648 255.224,106.264 254.224 C 106.144 253.909,106.260 253.564,106.522 253.457 C 106.797 253.346,106.721 253.250,106.343 253.232 C 105.981 253.214,105.578 253.479,105.447 253.821 C 105.293 254.222,105.371 254.342,105.666 254.159 C 105.957 253.979,106.014 254.054,105.821 254.365 C 105.655 254.634,105.267 254.758,104.960 254.640 C 104.652 254.522,104.400 254.605,104.400 254.825 C 104.400 255.238,105.074 255.594,106.157 255.753 C 106.498 255.803,106.872 255.969,106.988 256.122 C 107.105 256.275,107.080 256.310,106.932 256.199 C 106.612 255.959,105.200 257.170,105.200 257.686 C 105.200 257.884,105.408 257.919,105.662 257.762 C 105.948 257.585,106.015 257.652,105.838 257.939 C 105.626 258.281,105.336 258.287,104.727 257.961 C 104.130 257.641,103.978 257.641,104.175 257.960 C 104.325 258.202,104.307 258.625,104.135 258.900 C 103.614 259.734,103.649 260.333,104.233 260.557 C 104.556 260.681,104.690 261.067,104.556 261.485 C 104.378 262.034,104.416 262.072,104.718 261.649 C 104.934 261.346,105.311 261.221,105.555 261.372 C 105.800 261.524,106.000 261.427,106.000 261.157 C 106.000 260.887,106.119 260.786,106.264 260.931 C 106.410 261.076,106.202 261.556,105.802 261.998 C 105.150 262.718,105.143 262.800,105.738 262.800 C 106.102 262.800,106.400 262.991,106.400 263.224 C 106.400 263.457,106.247 263.552,106.059 263.436 C 105.871 263.320,105.394 263.463,104.997 263.753 C 104.356 264.222,104.426 264.266,105.638 264.156 C 106.387 264.089,106.683 264.129,106.295 264.247 C 105.907 264.364,105.692 264.625,105.816 264.826 C 105.940 265.027,105.764 265.084,105.424 264.954 C 104.598 264.637,104.142 265.895,104.737 266.848 C 105.343 267.818,105.321 268.000,104.600 268.000 C 104.270 268.000,104.045 267.798,104.100 267.550 C 104.155 267.303,103.975 267.017,103.700 266.917 C 103.390 266.803,103.286 266.959,103.426 267.324 C 103.762 268.200,102.141 268.273,80.619 268.355 C 70.069 268.396,61.339 268.537,61.219 268.670 C 61.015 268.894,164.473 268.478,166.900 268.246 C 167.505 268.188,168.855 268.097,169.900 268.045 C 171.478 267.965,171.648 267.888,170.900 267.588 C 170.405 267.389,170.000 267.018,170.000 266.764 C 170.000 266.417,170.137 266.416,170.552 266.760 C 170.991 267.125,171.142 267.016,171.294 266.221 C 171.399 265.673,171.351 265.307,171.188 265.408 C 171.024 265.509,170.682 265.339,170.426 265.031 C 170.108 264.648,170.093 264.389,170.381 264.212 C 170.611 264.069,170.800 263.773,170.800 263.553 C 170.800 263.333,170.650 263.245,170.467 263.359 C 170.283 263.472,170.133 263.311,170.133 263.000 C 170.133 262.689,170.238 262.498,170.367 262.576 C 170.495 262.653,170.832 262.465,171.116 262.158 C 171.541 261.698,171.519 261.600,170.992 261.600 C 170.641 261.600,170.464 261.420,170.601 261.199 C 170.766 260.931,171.097 260.931,171.598 261.199 C 172.781 261.832,173.001 261.668,172.061 260.853 C 171.588 260.442,171.200 259.892,171.200 259.629 C 171.200 259.367,171.053 259.244,170.873 259.355 C 170.693 259.466,170.545 259.057,170.545 258.445 C 170.545 257.792,170.763 257.333,171.073 257.333 C 171.698 257.333,171.769 257.848,171.193 258.204 C 170.691 258.515,172.246 260.814,172.927 260.768 C 173.246 260.747,173.231 260.669,172.883 260.530 C 172.467 260.362,172.464 260.194,172.870 259.661 C 173.147 259.297,173.221 259.129,173.034 259.286 C 172.349 259.863,171.096 258.808,171.659 258.129 C 172.083 257.618,172.040 257.418,171.406 256.955 C 170.772 256.492,170.734 256.313,171.180 255.899 C 171.507 255.595,171.617 255.579,171.461 255.858 C 171.320 256.110,171.483 256.423,171.823 256.554 C 172.192 256.695,172.338 256.624,172.186 256.378 C 172.046 256.151,172.144 255.708,172.405 255.394 C 172.777 254.945,172.741 254.684,172.236 254.179 C 171.882 253.825,171.695 253.370,171.820 253.168 C 171.945 252.965,171.887 252.800,171.690 252.800 C 171.494 252.800,171.333 252.538,171.333 252.218 C 171.333 251.897,171.476 251.723,171.649 251.830 C 171.823 251.938,171.893 251.451,171.804 250.750 C 171.715 250.048,171.931 248.827,172.284 248.037 C 173.008 246.417,173.277 244.305,172.715 244.652 C 172.512 244.778,172.442 245.133,172.560 245.440 C 172.678 245.748,172.618 246.000,172.427 246.000 C 172.236 246.000,172.097 245.372,172.119 244.604 C 172.140 243.837,172.258 243.342,172.379 243.504 C 172.501 243.667,172.870 243.858,173.200 243.929 C 173.660 244.027,173.691 243.946,173.331 243.580 C 172.810 243.049,173.078 241.878,173.642 242.226 C 173.839 242.348,174.000 242.257,174.000 242.024 C 174.000 241.791,173.820 241.600,173.600 241.600 C 173.051 241.600,173.095 240.265,173.663 239.697 C 174.014 239.346,173.990 239.066,173.563 238.542 C 173.068 237.934,173.080 237.880,173.667 238.100 C 174.037 238.238,174.418 238.129,174.524 237.855 C 174.651 237.522,174.334 237.386,173.558 237.440 C 172.922 237.484,172.497 237.366,172.614 237.178 C 172.730 236.989,173.119 236.948,173.478 237.085 C 173.968 237.273,174.043 237.194,173.778 236.768 C 173.179 235.806,173.273 233.963,173.894 234.478 C 174.183 234.718,174.535 234.798,174.676 234.657 C 174.818 234.516,174.734 234.400,174.490 234.400 C 174.246 234.400,174.116 234.035,174.202 233.589 C 174.288 233.143,174.188 232.884,173.979 233.013 C 173.396 233.373,173.530 232.556,174.137 232.052 C 174.432 231.807,174.821 231.740,175.001 231.903 C 175.181 232.067,175.197 231.972,175.036 231.693 C 174.876 231.415,174.590 231.283,174.400 231.400 C 174.210 231.517,173.926 231.404,173.768 231.149 C 173.567 230.824,173.804 230.746,174.554 230.889 C 175.145 231.002,175.533 231.000,175.417 230.884 C 175.302 230.768,175.422 230.387,175.684 230.037 C 176.084 229.504,176.070 229.481,175.601 229.900 C 174.893 230.531,174.259 230.552,174.642 229.932 C 174.841 229.610,174.706 229.550,174.209 229.741 C 173.655 229.954,173.585 229.900,173.909 229.509 C 174.310 229.026,174.392 228.795,174.406 228.100 C 174.409 227.935,174.587 228.070,174.800 228.400 C 175.013 228.730,175.191 228.805,175.194 228.567 C 175.197 228.328,175.075 228.008,174.922 227.855 C 174.435 227.369,174.429 226.247,174.910 225.668 C 175.276 225.226,175.166 224.936,174.387 224.288 C 173.792 223.793,173.673 223.566,174.087 223.716 C 174.948 224.028,175.479 223.282,174.628 222.955 C 174.285 222.824,174.110 222.546,174.238 222.339 C 174.381 222.107,174.665 222.122,174.972 222.377 C 175.575 222.877,176.025 222.531,175.739 221.786 C 175.620 221.475,175.254 221.357,174.867 221.504 C 174.479 221.651,174.634 221.348,175.239 220.778 C 175.811 220.240,176.191 219.546,176.085 219.236 C 175.949 218.842,176.094 218.751,176.566 218.932 C 176.967 219.085,177.142 219.029,176.996 218.794 C 176.861 218.576,176.267 218.507,175.675 218.642 L 174.600 218.886 175.500 218.220 C 176.363 217.582,176.727 216.748,176.100 216.847 C 174.690 217.070,174.676 216.124,176.069 214.731 C 176.471 214.329,176.787 213.685,176.772 213.300 C 176.748 212.701,176.694 212.716,176.400 213.400 C 176.211 213.840,176.044 214.009,176.028 213.776 C 176.013 213.544,175.724 213.004,175.388 212.576 C 174.784 211.810,174.776 211.811,174.849 212.600 C 174.890 213.040,174.788 213.711,174.622 214.091 C 174.457 214.471,174.294 215.488,174.261 216.350 C 174.227 217.212,174.105 217.861,173.990 217.791 C 173.874 217.721,172.794 222.356,171.590 228.092 L 169.400 238.519 141.526 210.360 C 119.782 188.393,113.677 182.434,113.767 183.265 M250.000 188.000 C 249.010 188.867,248.018 189.581,247.796 189.588 C 247.574 189.595,247.168 189.960,246.893 190.400 C 246.618 190.840,246.153 191.200,245.859 191.200 C 245.565 191.200,244.998 191.560,244.600 192.000 C 244.202 192.440,243.677 192.800,243.434 192.800 C 243.191 192.800,242.768 193.160,242.493 193.600 C 242.218 194.040,241.800 194.400,241.564 194.400 C 241.328 194.400,240.366 195.030,239.426 195.800 C 238.486 196.570,237.588 197.200,237.431 197.200 C 237.273 197.200,236.290 197.920,235.246 198.800 C 234.202 199.680,233.210 200.400,233.042 200.400 C 232.873 200.400,231.966 201.030,231.026 201.800 C 230.086 202.570,229.156 203.200,228.958 203.200 C 228.760 203.200,227.765 203.965,226.746 204.900 C 225.727 205.835,224.608 206.780,224.258 207.000 C 223.584 207.425,230.557 235.991,231.337 235.997 C 233.021 236.011,249.633 218.309,249.235 216.924 C 248.954 215.942,249.003 215.713,249.487 215.752 C 249.818 215.778,250.243 215.395,250.432 214.900 C 250.684 214.237,250.629 214.000,250.225 214.000 C 249.859 214.000,249.750 214.288,249.900 214.863 C 250.048 215.426,249.975 215.632,249.691 215.456 C 249.285 215.205,249.318 214.284,249.812 212.100 C 249.924 211.605,249.832 211.200,249.608 211.200 C 249.383 211.200,249.200 211.009,249.200 210.776 C 249.200 210.543,249.361 210.452,249.558 210.574 C 249.755 210.696,250.025 210.512,250.158 210.165 C 250.572 209.086,250.427 208.705,249.700 208.962 C 249.258 209.119,249.351 208.935,249.954 208.462 C 250.587 207.967,250.756 207.620,250.454 207.434 C 250.204 207.279,250.000 207.354,250.000 207.600 C 250.000 207.846,249.850 207.954,249.666 207.841 C 249.169 207.533,249.423 205.784,249.948 205.900 C 250.532 206.029,250.528 205.488,249.942 204.902 C 249.599 204.559,249.724 204.495,250.442 204.647 L 251.400 204.850 250.439 204.279 C 249.731 203.857,249.626 203.648,250.039 203.484 C 250.503 203.299,250.508 203.196,250.066 202.886 C 249.633 202.582,249.652 202.466,250.167 202.268 C 250.797 202.026,250.806 201.614,250.267 197.877 C 250.164 197.161,250.267 196.817,250.553 196.926 C 250.805 197.023,251.000 196.685,251.000 196.149 C 251.000 195.627,250.871 195.200,250.713 195.200 C 250.554 195.200,250.540 194.900,250.681 194.534 C 250.842 194.113,250.778 193.967,250.505 194.135 C 250.232 194.304,250.151 194.111,250.283 193.605 C 250.397 193.167,250.611 192.883,250.757 192.974 C 250.981 193.112,251.005 192.392,250.832 190.676 C 250.815 190.498,250.592 190.481,250.338 190.638 C 250.052 190.815,249.985 190.748,250.162 190.462 C 250.319 190.208,250.752 189.994,251.124 189.987 C 251.754 189.975,251.753 189.939,251.114 189.453 C 250.592 189.057,250.539 188.821,250.894 188.466 C 251.150 188.210,251.206 188.000,251.018 188.000 C 250.830 188.000,251.002 187.640,251.400 187.200 C 252.525 185.957,251.973 186.272,250.000 188.000 M113.200 188.292 C 112.870 188.417,112.475 188.713,112.322 188.948 C 111.962 189.502,111.435 188.991,111.784 188.427 C 111.929 188.192,112.442 188.014,112.924 188.032 C 113.520 188.053,113.608 188.136,113.200 188.292 M101.104 191.098 C 96.542 196.228,86.932 213.892,82.967 224.434 C 79.476 233.715,74.569 252.672,75.429 253.557 C 75.665 253.801,75.846 253.047,77.150 246.400 C 80.709 228.259,88.497 210.085,99.318 194.672 C 101.799 191.138,102.737 189.261,101.104 191.098 M112.955 196.073 C 112.839 196.260,112.558 196.298,112.330 196.156 C 112.064 195.992,112.012 196.207,112.184 196.750 C 112.344 197.254,112.280 197.600,112.027 197.600 C 111.599 197.600,111.424 196.310,111.800 195.933 C 112.143 195.590,113.176 195.715,112.955 196.073 M176.400 204.783 C 176.400 205.031,176.730 205.588,177.133 206.021 C 177.706 206.636,177.867 206.676,177.867 206.204 C 177.867 205.872,177.717 205.600,177.533 205.600 C 177.350 205.600,177.245 205.398,177.300 205.150 C 177.355 204.903,177.175 204.618,176.900 204.517 C 176.625 204.416,176.400 204.536,176.400 204.783 M176.072 207.866 C 175.856 208.270,175.676 208.690,175.672 208.800 C 175.668 208.910,175.541 209.497,175.388 210.105 C 175.124 211.159,175.824 212.709,176.334 212.199 C 176.748 211.785,176.789 210.440,176.394 210.197 C 176.177 210.062,176.003 209.738,176.006 209.476 C 176.010 209.190,176.167 209.239,176.400 209.600 C 176.633 209.961,176.790 210.010,176.794 209.724 C 176.797 209.462,176.611 209.131,176.381 208.988 C 176.095 208.811,176.113 208.546,176.438 208.155 C 176.700 207.839,176.813 207.480,176.689 207.356 C 176.566 207.233,176.288 207.462,176.072 207.866 M175.327 220.246 C 175.141 220.731,175.019 220.754,174.771 220.353 C 174.396 219.746,174.700 219.091,175.210 219.406 C 175.405 219.527,175.458 219.905,175.327 220.246 M172.495 249.645 C 172.400 250.585,172.385 251.450,172.451 252.100 C 172.479 252.375,172.434 252.780,172.351 253.000 C 172.268 253.220,172.379 253.400,172.597 253.400 C 172.816 253.400,172.939 253.157,172.871 252.860 C 172.796 252.535,172.933 252.435,173.215 252.609 C 173.472 252.768,173.397 252.462,173.048 251.929 C 172.486 251.072,172.481 250.863,173.001 250.121 C 173.462 249.462,173.479 249.239,173.080 249.086 C 172.791 248.975,172.539 249.217,172.495 249.645 M107.160 258.500 C 106.524 259.723,106.531 259.719,106.254 258.996 C 106.112 258.627,106.176 258.461,106.405 258.603 C 106.622 258.737,106.800 258.567,106.800 258.224 C 106.800 257.881,106.986 257.600,107.214 257.600 C 107.483 257.600,107.465 257.915,107.160 258.500 M106.000 259.843 C 106.000 260.572,105.535 260.548,104.576 259.770 C 104.149 259.424,104.025 259.255,104.300 259.394 C 104.575 259.533,104.800 259.462,104.800 259.236 C 104.800 259.010,105.070 258.929,105.400 259.055 C 105.730 259.182,106.000 259.536,106.000 259.843 M171.074 262.700 C 170.777 263.213,171.432 264.595,171.738 264.101 C 171.889 263.856,171.827 263.540,171.600 263.400 C 171.373 263.260,171.291 262.977,171.417 262.772 C 171.544 262.568,171.557 262.400,171.447 262.400 C 171.337 262.400,171.169 262.535,171.074 262.700 M106.131 266.300 C 105.755 266.575,105.301 266.800,105.124 266.800 C 104.946 266.800,104.800 266.575,104.800 266.300 C 104.800 266.025,105.253 265.800,105.807 265.800 C 106.711 265.800,106.744 265.851,106.131 266.300 " stroke="none" fill="#3c2790" fill-rule="evenodd"></path><path id="path4" d="M198.926 70.500 C 198.749 70.775,196.855 82.430,194.718 96.400 C 190.388 124.695,190.340 124.967,189.255 127.088 C 188.458 128.648,186.658 130.800,186.151 130.800 C 185.992 130.800,185.579 131.041,185.231 131.336 C 184.884 131.631,182.710 132.086,180.400 132.347 C 176.216 132.820,175.356 132.988,167.000 134.972 C 161.831 136.200,155.846 137.980,156.085 138.218 C 156.177 138.310,158.130 137.848,160.426 137.191 C 169.224 134.674,181.071 132.480,183.106 132.991 C 183.734 133.149,184.241 133.057,184.430 132.751 C 184.598 132.479,185.021 132.214,185.370 132.163 C 185.719 132.112,185.901 132.237,185.774 132.442 C 185.648 132.646,185.390 132.717,185.201 132.601 C 185.012 132.484,184.742 132.754,184.600 133.200 C 184.458 133.646,184.191 133.918,184.006 133.804 C 183.606 133.557,183.691 134.390,184.139 135.107 C 184.313 135.385,184.668 135.486,184.928 135.330 C 185.258 135.132,185.251 135.231,184.903 135.660 C 184.630 135.997,184.513 136.380,184.643 136.510 C 184.773 136.640,184.536 136.656,184.116 136.546 C 183.578 136.406,183.217 136.645,182.894 137.354 C 182.491 138.237,182.519 138.331,183.117 138.117 C 183.616 137.938,183.538 138.159,182.830 138.936 C 182.297 139.521,182.072 140.000,182.330 140.000 C 182.589 140.000,182.800 139.809,182.800 139.576 C 182.800 139.343,182.965 139.255,183.166 139.379 C 183.367 139.503,183.623 139.379,183.734 139.102 C 183.856 138.799,183.949 138.878,183.968 139.300 C 183.986 139.685,183.850 140.000,183.667 140.000 C 183.177 140.000,183.248 141.353,183.755 141.682 C 183.994 141.838,183.801 141.935,183.325 141.899 C 182.624 141.847,182.533 141.699,182.844 141.117 C 183.071 140.693,183.078 140.400,182.861 140.400 C 182.292 140.400,182.040 141.880,182.526 142.366 C 182.765 142.605,182.812 142.800,182.631 142.800 C 182.450 142.800,182.549 143.105,182.851 143.477 C 183.224 143.937,183.240 144.057,182.900 143.853 C 182.625 143.688,182.400 143.731,182.400 143.948 C 182.400 144.165,181.365 144.543,180.100 144.787 C 171.951 146.359,151.326 153.059,152.138 153.871 C 152.222 153.955,153.351 153.583,154.646 153.044 C 157.087 152.027,168.892 148.252,171.000 147.814 C 171.660 147.676,172.830 147.408,173.600 147.218 C 176.976 146.383,182.275 145.350,184.867 145.021 L 186.334 144.834 185.940 146.117 C 185.568 147.331,185.151 149.724,184.419 154.860 C 184.242 156.103,183.988 157.296,183.856 157.510 C 183.723 157.725,183.514 158.778,183.391 159.850 C 183.268 160.923,183.080 162.091,182.974 162.447 C 182.355 164.512,180.600 175.812,180.201 180.298 C 180.118 181.232,179.929 182.191,179.782 182.429 C 179.635 182.667,179.365 183.973,179.182 185.331 C 178.999 186.689,178.460 189.960,177.984 192.600 C 177.508 195.240,176.969 198.481,176.786 199.802 C 176.604 201.124,176.284 202.654,176.075 203.202 C 175.444 204.864,175.544 207.707,176.225 207.446 C 176.983 207.155,176.962 207.768,176.191 208.407 C 175.655 208.852,175.652 209.020,176.164 209.801 C 176.655 210.551,176.704 211.017,176.431 212.349 C 176.414 212.431,176.130 212.274,175.800 212.000 C 175.074 211.398,175.047 211.627,175.681 213.019 C 176.112 213.964,176.194 213.998,176.453 213.338 C 176.717 212.667,176.746 212.664,176.772 213.300 C 176.787 213.685,176.471 214.329,176.069 214.731 C 174.676 216.124,174.690 217.070,176.100 216.847 C 176.727 216.748,176.363 217.582,175.500 218.220 L 174.600 218.886 175.675 218.642 C 176.267 218.507,176.861 218.576,176.996 218.794 C 177.142 219.029,176.967 219.085,176.566 218.932 C 176.094 218.751,175.949 218.842,176.085 219.236 C 176.191 219.546,175.811 220.240,175.239 220.778 C 174.634 221.348,174.479 221.651,174.867 221.504 C 175.254 221.357,175.620 221.475,175.739 221.786 C 176.025 222.531,175.575 222.877,174.972 222.377 C 174.665 222.122,174.381 222.107,174.238 222.339 C 174.110 222.546,174.285 222.824,174.628 222.955 C 175.479 223.282,174.948 224.028,174.087 223.716 C 173.673 223.566,173.792 223.793,174.387 224.288 C 175.166 224.936,175.276 225.226,174.910 225.668 C 174.429 226.247,174.435 227.369,174.922 227.855 C 175.075 228.008,175.197 228.328,175.194 228.567 C 175.191 228.805,175.033 228.756,174.844 228.457 C 174.604 228.079,174.417 228.049,174.226 228.357 C 174.076 228.601,174.075 228.800,174.225 228.800 C 174.375 228.800,174.270 229.074,173.992 229.409 C 173.565 229.924,173.599 229.975,174.209 229.741 C 174.706 229.550,174.841 229.610,174.642 229.932 C 174.259 230.552,174.893 230.531,175.601 229.900 C 176.070 229.481,176.084 229.504,175.684 230.037 C 175.422 230.387,175.302 230.768,175.417 230.884 C 175.533 231.000,175.145 231.002,174.554 230.889 C 173.804 230.746,173.567 230.824,173.768 231.149 C 173.926 231.404,174.210 231.517,174.400 231.400 C 174.590 231.283,174.876 231.415,175.036 231.693 C 175.197 231.972,175.181 232.067,175.001 231.903 C 174.821 231.740,174.432 231.807,174.137 232.052 C 173.539 232.549,173.392 233.376,173.965 233.022 C 174.166 232.898,174.277 233.112,174.212 233.498 C 174.147 233.884,173.931 234.168,173.732 234.128 C 173.273 234.037,173.308 236.012,173.778 236.768 C 174.043 237.194,173.968 237.273,173.478 237.085 C 173.119 236.948,172.730 236.989,172.614 237.178 C 172.497 237.366,172.922 237.484,173.558 237.440 C 174.334 237.386,174.651 237.522,174.524 237.855 C 174.418 238.129,174.037 238.238,173.667 238.100 C 173.080 237.880,173.068 237.934,173.563 238.542 C 173.990 239.066,174.014 239.346,173.663 239.697 C 173.095 240.265,173.051 241.600,173.600 241.600 C 173.820 241.600,174.000 241.791,174.000 242.024 C 174.000 242.257,173.839 242.348,173.642 242.226 C 173.078 241.878,172.810 243.049,173.331 243.580 C 173.691 243.946,173.660 244.027,173.200 243.929 C 172.870 243.858,172.501 243.667,172.379 243.504 C 172.258 243.342,172.140 243.837,172.119 244.604 C 172.097 245.372,172.236 246.000,172.427 246.000 C 172.618 246.000,172.678 245.748,172.560 245.440 C 172.442 245.133,172.512 244.778,172.715 244.652 C 173.277 244.305,173.008 246.417,172.284 248.037 C 171.931 248.827,171.715 250.048,171.804 250.750 C 171.893 251.451,171.823 251.938,171.649 251.830 C 171.476 251.723,171.333 251.897,171.333 252.218 C 171.333 252.538,171.494 252.800,171.690 252.800 C 171.887 252.800,171.945 252.965,171.820 253.168 C 171.695 253.370,171.882 253.825,172.236 254.179 C 172.741 254.684,172.777 254.945,172.405 255.394 C 172.144 255.708,172.046 256.151,172.186 256.378 C 172.338 256.624,172.192 256.695,171.823 256.554 C 171.483 256.423,171.320 256.110,171.461 255.858 C 171.617 255.579,171.507 255.595,171.180 255.899 C 170.734 256.313,170.772 256.492,171.406 256.955 C 172.040 257.418,172.083 257.618,171.659 258.129 C 171.096 258.808,172.349 259.863,173.034 259.286 C 173.221 259.129,173.147 259.297,172.870 259.661 C 172.464 260.194,172.467 260.362,172.883 260.530 C 173.231 260.669,173.246 260.747,172.927 260.768 C 172.246 260.814,170.691 258.515,171.193 258.204 C 171.769 257.848,171.698 257.333,171.073 257.333 C 170.763 257.333,170.545 257.792,170.545 258.445 C 170.545 259.057,170.693 259.466,170.873 259.355 C 171.053 259.244,171.200 259.367,171.200 259.629 C 171.200 259.892,171.588 260.442,172.061 260.853 C 173.001 261.668,172.781 261.832,171.598 261.199 C 171.097 260.931,170.766 260.931,170.601 261.199 C 170.464 261.420,170.641 261.600,170.992 261.600 C 171.519 261.600,171.541 261.698,171.116 262.158 C 170.832 262.465,170.495 262.653,170.367 262.576 C 170.238 262.498,170.133 262.689,170.133 263.000 C 170.133 263.311,170.283 263.472,170.467 263.359 C 170.650 263.245,170.800 263.333,170.800 263.553 C 170.800 263.773,170.611 264.069,170.381 264.212 C 170.093 264.389,170.108 264.648,170.426 265.031 C 170.682 265.339,171.024 265.509,171.188 265.408 C 171.351 265.307,171.399 265.673,171.294 266.221 C 171.142 267.016,170.991 267.125,170.552 266.760 C 170.137 266.416,170.000 266.417,170.000 266.764 C 170.000 267.018,170.395 267.372,170.877 267.550 C 172.467 268.139,167.213 268.353,150.425 268.385 C 141.529 268.403,134.164 268.503,134.058 268.608 C 133.953 268.714,148.657 268.800,166.733 268.800 L 199.600 268.800 199.600 169.400 C 199.600 114.730,199.521 70.000,199.424 70.000 C 199.327 70.000,199.103 70.225,198.926 70.500 M209.483 127.100 C 209.958 128.392,210.907 129.629,211.757 130.066 C 212.562 130.479,212.559 130.460,211.704 129.638 C 211.212 129.164,210.532 128.242,210.194 127.588 C 209.523 126.291,209.071 125.981,209.483 127.100 M337.518 126.947 C 337.165 127.196,336.472 127.670,335.976 128.000 C 335.481 128.330,334.793 128.915,334.449 129.300 C 334.104 129.685,333.635 130.000,333.407 130.000 C 333.179 130.000,332.544 130.405,331.996 130.901 C 330.637 132.131,328.697 133.677,327.607 134.400 C 327.109 134.730,326.499 135.187,326.251 135.416 C 326.003 135.644,324.900 136.504,323.800 137.325 C 321.943 138.713,320.130 140.146,318.392 141.600 C 317.997 141.930,317.268 142.470,316.771 142.800 C 316.275 143.130,315.555 143.697,315.174 144.061 C 314.792 144.424,314.118 144.836,313.676 144.976 C 313.235 145.116,312.773 145.494,312.650 145.815 C 312.526 146.137,312.246 146.400,312.026 146.400 C 311.807 146.400,311.108 146.895,310.473 147.500 C 309.837 148.105,308.910 148.870,308.413 149.200 C 306.730 150.316,303.635 152.669,301.957 154.106 C 301.383 154.598,300.508 155.270,300.012 155.600 C 299.081 156.219,296.718 158.006,295.519 158.997 C 293.232 160.887,289.791 161.653,286.463 161.012 C 285.585 160.843,281.807 158.342,281.000 157.396 C 280.780 157.138,279.088 155.981,277.240 154.823 C 275.392 153.666,273.682 152.541,273.440 152.323 C 271.229 150.330,255.887 142.693,249.400 140.356 C 246.760 139.405,244.510 138.512,244.400 138.372 C 244.174 138.083,234.661 135.512,231.000 134.749 C 229.680 134.474,228.510 134.133,228.400 133.992 C 228.182 133.710,221.236 132.550,217.400 132.153 C 216.080 132.017,214.601 131.657,214.114 131.353 C 212.939 130.620,212.394 130.640,213.447 131.378 L 214.272 131.956 213.546 136.878 C 212.678 142.767,212.616 144.777,213.300 144.863 C 215.939 145.193,216.037 145.209,220.200 146.010 C 223.669 146.677,231.523 148.731,232.399 149.200 C 232.811 149.420,233.514 149.600,233.962 149.600 C 234.410 149.600,235.800 150.052,237.050 150.605 C 238.300 151.158,239.809 151.696,240.404 151.801 C 241.712 152.031,248.698 154.901,251.200 156.236 C 252.190 156.765,254.080 157.714,255.400 158.346 C 258.205 159.688,260.615 161.005,263.400 162.718 C 264.500 163.394,266.306 164.479,267.413 165.128 C 268.520 165.777,269.668 166.599,269.962 166.954 C 270.257 167.309,270.667 167.600,270.873 167.600 C 271.079 167.600,272.041 168.205,273.009 168.945 L 274.771 170.290 273.285 171.483 C 272.468 172.140,271.620 172.726,271.400 172.785 C 271.180 172.844,270.111 173.637,269.025 174.546 C 267.939 175.456,266.949 176.181,266.825 176.158 C 266.701 176.135,265.297 177.080,263.704 178.258 C 262.111 179.436,260.703 180.400,260.576 180.400 C 260.448 180.400,259.490 181.120,258.446 182.000 C 257.402 182.880,256.415 183.600,256.253 183.600 C 255.890 183.600,250.400 187.953,250.400 188.241 C 250.400 188.354,250.625 188.320,250.900 188.165 C 251.294 187.943,251.297 187.994,250.914 188.407 C 250.529 188.823,250.571 189.041,251.114 189.453 C 251.753 189.939,251.754 189.975,251.124 189.987 C 250.752 189.994,250.319 190.208,250.162 190.462 C 249.985 190.748,250.052 190.815,250.338 190.638 C 250.592 190.481,250.815 190.498,250.832 190.676 C 251.005 192.392,250.981 193.112,250.757 192.974 C 250.611 192.883,250.397 193.167,250.283 193.605 C 250.151 194.111,250.232 194.304,250.505 194.135 C 250.778 193.967,250.842 194.113,250.681 194.534 C 250.540 194.900,250.554 195.200,250.713 195.200 C 250.871 195.200,251.000 195.627,251.000 196.149 C 251.000 196.685,250.805 197.023,250.553 196.926 C 250.267 196.817,250.164 197.161,250.267 197.877 C 250.806 201.614,250.797 202.026,250.167 202.268 C 249.652 202.466,249.633 202.582,250.066 202.886 C 250.508 203.196,250.503 203.299,250.039 203.484 C 249.626 203.648,249.731 203.857,250.439 204.279 L 251.400 204.850 250.442 204.647 C 249.724 204.495,249.599 204.559,249.942 204.902 C 250.528 205.488,250.532 206.029,249.948 205.900 C 249.423 205.784,249.169 207.533,249.666 207.841 C 249.850 207.954,250.000 207.846,250.000 207.600 C 250.000 207.354,250.204 207.279,250.454 207.434 C 250.756 207.620,250.587 207.967,249.954 208.462 C 249.351 208.935,249.258 209.119,249.700 208.962 C 250.427 208.705,250.572 209.086,250.158 210.165 C 250.025 210.512,249.755 210.696,249.558 210.574 C 249.361 210.452,249.200 210.543,249.200 210.776 C 249.200 211.009,249.383 211.200,249.608 211.200 C 249.832 211.200,249.924 211.605,249.812 212.100 C 249.318 214.284,249.285 215.205,249.691 215.456 C 249.975 215.632,250.048 215.426,249.900 214.863 C 249.750 214.288,249.859 214.000,250.225 214.000 C 250.629 214.000,250.684 214.237,250.432 214.900 C 250.243 215.395,249.829 215.780,249.511 215.755 C 248.903 215.709,248.988 217.422,249.613 217.808 C 250.083 218.098,339.400 128.093,339.400 127.329 C 339.400 126.534,338.392 126.330,337.518 126.947 M213.462 148.200 C 213.596 149.080,213.772 149.875,213.853 149.967 C 214.156 150.310,213.929 148.168,213.581 147.400 C 213.329 146.842,213.293 147.085,213.462 148.200 M150.000 154.600 C 149.450 154.914,149.180 155.172,149.400 155.172 C 149.620 155.172,150.250 154.914,150.800 154.600 C 151.350 154.286,151.620 154.028,151.400 154.028 C 151.180 154.028,150.550 154.286,150.000 154.600 M147.500 155.829 C 146.005 156.640,146.096 156.978,147.600 156.200 C 148.260 155.859,148.800 155.494,148.800 155.390 C 148.800 155.132,148.757 155.147,147.500 155.829 M301.269 184.181 C 298.613 188.054,296.587 191.132,296.767 191.020 C 298.334 190.052,310.667 211.842,315.321 223.800 C 319.187 233.734,324.032 252.101,323.047 253.087 C 322.887 253.246,265.062 244.485,261.511 243.763 L 260.423 243.541 262.645 240.371 C 263.867 238.627,264.777 237.200,264.667 237.200 C 264.557 237.200,263.429 238.685,262.161 240.500 C 260.892 242.315,255.837 249.347,250.927 256.126 C 246.017 262.906,242.000 268.531,242.000 268.626 C 242.000 268.885,301.642 268.836,353.102 268.534 C 396.571 268.279,398.378 268.239,397.757 267.553 C 397.212 266.951,395.761 266.496,392.000 265.750 C 391.670 265.684,390.860 265.522,390.200 265.388 C 389.540 265.255,388.663 265.149,388.251 265.152 C 387.838 265.155,383.518 264.351,378.651 263.365 C 373.783 262.378,369.080 261.483,368.200 261.375 C 366.389 261.153,364.185 260.816,363.000 260.581 C 362.560 260.493,361.750 260.343,361.200 260.247 C 360.650 260.151,359.750 259.978,359.200 259.864 C 358.650 259.749,355.320 259.096,351.800 258.413 C 342.269 256.563,340.365 255.856,339.640 253.897 C 339.458 253.404,339.153 253.000,338.963 253.000 C 338.773 253.000,338.586 252.786,338.548 252.525 C 338.510 252.264,338.146 251.693,337.739 251.257 C 337.210 250.688,336.675 248.553,335.855 243.731 C 335.225 240.029,334.589 236.910,334.441 236.800 C 334.293 236.690,333.412 233.735,332.484 230.233 C 331.555 226.732,330.256 222.726,329.598 221.332 C 328.939 219.938,328.400 218.704,328.400 218.590 C 328.400 217.934,325.440 210.951,325.059 210.706 C 324.806 210.544,324.780 210.407,325.000 210.400 C 325.238 210.393,325.224 210.269,324.966 210.094 C 324.727 209.932,323.753 208.090,322.800 206.000 C 321.847 203.910,320.934 202.109,320.769 201.998 C 320.605 201.887,319.711 200.447,318.781 198.798 C 317.852 197.149,316.126 194.423,314.946 192.739 C 313.766 191.056,312.800 189.508,312.800 189.301 C 312.800 189.094,312.425 188.584,311.966 188.169 C 310.640 186.969,307.749 182.645,307.418 181.367 C 307.252 180.725,307.030 179.660,306.925 179.000 C 306.562 176.724,306.082 177.164,301.269 184.181 M177.300 205.150 C 177.245 205.398,177.350 205.600,177.533 205.600 C 177.717 205.600,177.867 205.872,177.867 206.204 C 177.867 206.676,177.706 206.636,177.133 206.021 C 176.294 205.120,176.158 204.245,176.900 204.517 C 177.175 204.618,177.355 204.903,177.300 205.150 M280.000 214.800 C 279.530 215.460,279.236 216.000,279.346 216.000 C 279.456 216.000,279.930 215.460,280.400 214.800 C 280.870 214.140,281.164 213.600,281.054 213.600 C 280.944 213.600,280.470 214.140,280.000 214.800 M276.400 220.000 C 275.930 220.660,275.636 221.200,275.746 221.200 C 275.856 221.200,276.330 220.660,276.800 220.000 C 277.270 219.340,277.564 218.800,277.454 218.800 C 277.344 218.800,276.870 219.340,276.400 220.000 M174.654 219.513 C 174.543 219.692,174.596 220.070,174.771 220.353 C 175.019 220.754,175.141 220.731,175.327 220.246 C 175.579 219.590,174.998 218.957,174.654 219.513 M273.200 224.600 C 272.519 225.590,272.052 226.400,272.162 226.400 C 272.272 226.400,272.919 225.590,273.600 224.600 C 274.281 223.610,274.748 222.800,274.638 222.800 C 274.528 222.800,273.881 223.610,273.200 224.600 M269.600 229.800 C 268.919 230.790,268.452 231.600,268.562 231.600 C 268.672 231.600,269.319 230.790,270.000 229.800 C 270.681 228.810,271.148 228.000,271.038 228.000 C 270.928 228.000,270.281 228.810,269.600 229.800 M266.400 234.400 C 265.504 235.720,264.860 236.800,264.970 236.800 C 265.080 236.800,265.904 235.720,266.800 234.400 C 267.696 233.080,268.340 232.000,268.230 232.000 C 268.120 232.000,267.296 233.080,266.400 234.400 M173.001 250.121 C 172.481 250.863,172.486 251.072,173.048 251.929 C 173.397 252.462,173.472 252.768,173.215 252.609 C 172.933 252.435,172.796 252.535,172.871 252.860 C 172.939 253.157,172.816 253.400,172.597 253.400 C 172.379 253.400,172.268 253.220,172.351 253.000 C 172.434 252.780,172.479 252.375,172.451 252.100 C 172.257 250.198,172.533 248.876,173.080 249.086 C 173.479 249.239,173.462 249.462,173.001 250.121 M171.417 262.772 C 171.291 262.977,171.373 263.260,171.600 263.400 C 171.827 263.540,171.889 263.856,171.738 264.101 C 171.562 264.385,171.360 264.266,171.181 263.773 C 170.910 263.028,171.032 262.400,171.447 262.400 C 171.557 262.400,171.544 262.568,171.417 262.772 " stroke="none" fill="#2f177b" fill-rule="evenodd"></path></g></svg>