<svg xmlns="http://www.w3.org/2000/svg" version="1.1"
    xmlns:xlink="http://www.w3.org/1999/xlink"
    xmlns:svgjs="http://svgjs.com/svgjs" width="3840" height="2160" preserveAspectRatio="none" viewBox="0 0 3840 2160">
    <g mask="url(&quot;#SvgjsMask1010&quot;)" fill="none">
        <rect width="3840" height="2160" x="0" y="0" fill="rgba(13, 27, 42, 1)"></rect>
        <use xlink:href="#SvgjsG1014" transform="translate(0, 0)" fill="rgba(27, 38, 59, 1)"></use>
        <use xlink:href="#SvgjsG1014" transform="translate(0, 700)" fill="rgba(27, 38, 59, 1)"></use>
        <use xlink:href="#SvgjsG1014" transform="translate(0, 1400)" fill="rgba(27, 38, 59, 1)"></use>
        <use xlink:href="#SvgjsG1014" transform="translate(0, 2100)" fill="rgba(27, 38, 59, 1)"></use>
        <use xlink:href="#SvgjsG1014" transform="translate(700, 0)" fill="rgba(27, 38, 59, 1)"></use>
        <use xlink:href="#SvgjsG1014" transform="translate(700, 700)" fill="rgba(27, 38, 59, 1)"></use>
        <use xlink:href="#SvgjsG1014" transform="translate(700, 1400)" fill="rgba(27, 38, 59, 1)"></use>
        <use xlink:href="#SvgjsG1014" transform="translate(700, 2100)" fill="rgba(27, 38, 59, 1)"></use>
        <use xlink:href="#SvgjsG1014" transform="translate(1400, 0)" fill="rgba(27, 38, 59, 1)"></use>
        <use xlink:href="#SvgjsG1014" transform="translate(1400, 700)" fill="rgba(27, 38, 59, 1)"></use>
        <use xlink:href="#SvgjsG1014" transform="translate(1400, 1400)" fill="rgba(27, 38, 59, 1)"></use>
        <use xlink:href="#SvgjsG1014" transform="translate(1400, 2100)" fill="rgba(27, 38, 59, 1)"></use>
        <use xlink:href="#SvgjsG1014" transform="translate(2100, 0)" fill="rgba(27, 38, 59, 1)"></use>
        <use xlink:href="#SvgjsG1014" transform="translate(2100, 700)" fill="rgba(27, 38, 59, 1)"></use>
        <use xlink:href="#SvgjsG1014" transform="translate(2100, 1400)" fill="rgba(27, 38, 59, 1)"></use>
        <use xlink:href="#SvgjsG1014" transform="translate(2100, 2100)" fill="rgba(27, 38, 59, 1)"></use>
        <use xlink:href="#SvgjsG1014" transform="translate(2800, 0)" fill="rgba(27, 38, 59, 1)"></use>
        <use xlink:href="#SvgjsG1014" transform="translate(2800, 700)" fill="rgba(27, 38, 59, 1)"></use>
        <use xlink:href="#SvgjsG1014" transform="translate(2800, 1400)" fill="rgba(27, 38, 59, 1)"></use>
        <use xlink:href="#SvgjsG1014" transform="translate(2800, 2100)" fill="rgba(27, 38, 59, 1)"></use>
        <use xlink:href="#SvgjsG1014" transform="translate(3500, 0)" fill="rgba(27, 38, 59, 1)"></use>
        <use xlink:href="#SvgjsG1014" transform="translate(3500, 700)" fill="rgba(27, 38, 59, 1)"></use>
        <use xlink:href="#SvgjsG1014" transform="translate(3500, 1400)" fill="rgba(27, 38, 59, 1)"></use>
        <use xlink:href="#SvgjsG1014" transform="translate(3500, 2100)" fill="rgba(27, 38, 59, 1)"></use>
    </g>
    <defs>
        <mask id="SvgjsMask1010">
            <rect width="3840" height="2160" fill="#ffffff"></rect>
        </mask>
        <g id="SvgjsG1011">
            <path d="M14.87 8.36L7.92 0.07 5.56 2.05 4.41 0.66C4.41 0.67 1.64 6.35 1.64 6.35 1.21 7.29 1.37 8.01 1.94 8.69L7.54 15.36c0.89 1.06 2.48 1.22 3.47 0.4l5.93-4.98L15.91 9.56c-0.8 0.52-1.67-0.52-1.04-1.2z m-5.03 6.07c-0.65 0.54-1.41-0.37-0.76-0.92l4.13-3.47c-0.11 0.45 0.33 0.94 0.81 0.88L9.85 14.43z m2.76-6.08L8.98 11.39l1.61-3.34L6.69 3.39l1.03-0.86 4.88 5.82 0 0z" fill-rule="evenodd"></path>
        </g>
        <g id="SvgjsG1012">
            <path d="M6.71 7.29c0.42 0.5 0.42 1.43-0.18 1.93l4.39 5.23c1.02 1.21-0.63 2.59-1.65 1.38L4.88 10.6c-0.58 0.49-1.46 0.46-2.02-0.21L-1.08 5.7c-0.34-0.41 0.24-0.92 0.6-0.48l2.91 3.47 0.5-0.41L-0.01 4.78c-0.31-0.38 0.23-0.88 0.58-0.46l2.93 3.48 0.51-0.43L1.07 3.88c-0.33-0.39 0.21-0.87 0.57-0.45l2.92 3.48 0.5-0.42L2.13 2.99c-0.33-0.39 0.24-0.89 0.59-0.47L6.71 7.28z m1.32-7.37l8.34 9.95c0.99 1.18-0.67 2.55-1.65 1.38l-3.16-3.76-0.88 0.74L5.49 2.05c-1.56-1.86 0.97-3.98 2.54-2.13z"></path>
        </g>
        <g id="SvgjsG1013">
            <path d="M 301.283 205.972 C 296.783 203.857 292.3 201.75900000000001 287.843 199.68300000000002 C 282.738 197.306 276.66900000000004 199.51800000000003 274.291 204.62300000000002 C 271.914 209.73000000000002 274.125 215.79600000000002 279.231 218.175 C 283.664 220.238 288.125 222.32600000000002 292.601 224.43200000000002 C 294.003 225.091 295.48 225.40300000000002 296.935 225.40300000000002 C 300.764 225.40300000000002 304.435 223.23700000000002 306.171 219.543 C 308.57 214.445 306.381 208.37 301.283 205.972 z" />
            <path d="M 476.165 303.14 C 459.457 286.431 412.91200000000003 259.728 333.871 221.504 C 328.801 219.05499999999998 322.702 221.17399999999998 320.24899999999997 226.24599999999998 C 317.79699999999997 231.31699999999998 319.91999999999996 237.415 324.991 239.868 C 419.509 285.576 451.525 307.348 461.74199999999996 317.56399999999996 C 480.99699999999996 336.81899999999996 491.602 362.41999999999996 491.602 389.65199999999993 C 491.602 401.63499999999993 489.54699999999997 413.30099999999993 485.60699999999997 424.24999999999994 C 484.85299999999995 421.21799999999996 483.938 418.11599999999993 482.85299999999995 414.94599999999997 C 474.71999999999997 391.186 457.98199999999997 365.842 435.722 343.582 C 402.342 310.202 261.217 212.775 191.95299999999997 165.62099999999998 L 200.59499999999997 156.97799999999998 C 204.57799999999997 152.99499999999998 204.57799999999997 146.53699999999998 200.59499999999997 142.55299999999997 L 61.027 2.986 C 57.044000000000004 -0.996 50.586 -0.996 46.602000000000004 2.986 L 2.987 46.602 C 1.075 48.516 0 51.109 0 53.814 C 0 56.519 1.075 59.112 2.987 61.025999999999996 L 142.557 200.59499999999997 C 144.469 202.50699999999998 147.063 203.58199999999997 149.76899999999998 203.58199999999997 C 152.47499999999997 203.58199999999997 155.06799999999998 202.50699999999998 156.98099999999997 200.59499999999997 L 159.16599999999997 198.40999999999997 C 201.29599999999996 293.84899999999993 270.332 443.35499999999996 303.14099999999996 476.164 C 326.248 499.273 356.972 512 389.652 512 C 422.332 512 453.056 499.273 476.16499999999996 476.165 C 499.27399999999994 453.057 512 422.333 512 389.652 C 512 356.97099999999995 499.273 326.249 476.165 303.14 z M 149.768 178.959 L 24.623 53.814 L 53.815 24.623 L 178.96 149.767 L 149.768 178.959 z M 389.652 491.602 C 362.421 491.602 336.81899999999996 480.99699999999996 317.56399999999996 461.741 C 298.143 442.32099999999997 256.47999999999996 363.729 203.12799999999996 246.62499999999997 C 252.78199999999995 318.429 317.59899999999993 409.73799999999994 343.58299999999997 435.722 C 365.84299999999996 457.98199999999997 391.18699999999995 474.71999999999997 414.947 482.852 C 418.127 483.94 421.233 484.84099999999995 424.275 485.596 C 413.319 489.542 401.645 491.602 389.652 491.602 z M 466.785 452.36 L 280.551 266.126 C 276.568 262.14399999999995 270.11 262.14399999999995 266.126 266.126 C 262.143 270.109 262.143 276.56699999999995 266.126 280.551 L 452.359 466.784 C 444.459 468.801 433.813 467.75 421.55199999999996 463.554 C 400.67699999999996 456.40799999999996 378.10999999999996 441.402 358.006 421.298 C 326.76 390.052 234.88699999999997 257.328 186.78099999999998 186.782 C 257.44 234.964 390.056 326.76700000000005 421.298 358.009 C 441.402 378.112 456.408 400.678 463.553 421.553 C 467.751 433.814 468.802 444.46 466.785 452.36 z" />
        </g>
        <g id="SvgjsG1014">
            <use xlink:href="#SvgjsG1011" transform="translate(0, 0) scale(2)" fill="rgba(27, 38, 59, 1)"></use>
            <use xlink:href="#SvgjsG1012" transform="translate(0, 70) scale(2)" fill="rgba(27, 38, 59, 1)"></use>
            <use xlink:href="#SvgjsG1013" transform="translate(0, 140) scale(0.07)" fill="rgba(27, 38, 59, 1)"></use>
            <use xlink:href="#SvgjsG1011" transform="translate(0, 210) scale(2)" fill="rgba(27, 38, 59, 1)"></use>
            <use xlink:href="#SvgjsG1012" transform="translate(0, 280) scale(2)" fill="rgba(27, 38, 59, 1)"></use>
            <use xlink:href="#SvgjsG1013" transform="translate(0, 350) scale(0.07)" fill="rgba(27, 38, 59, 1)"></use>
            <use xlink:href="#SvgjsG1011" transform="translate(0, 420) scale(2)" fill="rgba(27, 38, 59, 1)"></use>
            <use xlink:href="#SvgjsG1012" transform="translate(0, 490) scale(2)" fill="rgba(27, 38, 59, 1)"></use>
            <use xlink:href="#SvgjsG1013" transform="translate(0, 560) scale(0.07)" fill="rgba(27, 38, 59, 1)"></use>
            <use xlink:href="#SvgjsG1011" transform="translate(0, 630) scale(2)" fill="rgba(27, 38, 59, 1)"></use>
            <use xlink:href="#SvgjsG1012" transform="translate(70, 0) scale(2)" fill="rgba(27, 38, 59, 1)"></use>
            <use xlink:href="#SvgjsG1013" transform="translate(70, 70) scale(0.07)" fill="rgba(27, 38, 59, 1)"></use>
            <use xlink:href="#SvgjsG1011" transform="translate(70, 140) scale(2)" fill="rgba(27, 38, 59, 1)"></use>
            <use xlink:href="#SvgjsG1012" transform="translate(70, 210) scale(2)" fill="rgba(27, 38, 59, 1)"></use>
            <use xlink:href="#SvgjsG1013" transform="translate(70, 280) scale(0.07)" fill="rgba(27, 38, 59, 1)"></use>
            <use xlink:href="#SvgjsG1011" transform="translate(70, 350) scale(2)" fill="rgba(27, 38, 59, 1)"></use>
            <use xlink:href="#SvgjsG1012" transform="translate(70, 420) scale(2)" fill="rgba(27, 38, 59, 1)"></use>
            <use xlink:href="#SvgjsG1013" transform="translate(70, 490) scale(0.07)" fill="rgba(27, 38, 59, 1)"></use>
            <use xlink:href="#SvgjsG1011" transform="translate(70, 560) scale(2)" fill="rgba(27, 38, 59, 1)"></use>
            <use xlink:href="#SvgjsG1012" transform="translate(70, 630) scale(2)" fill="rgba(27, 38, 59, 1)"></use>
            <use xlink:href="#SvgjsG1013" transform="translate(140, 0) scale(0.07)" fill="rgba(27, 38, 59, 1)"></use>
            <use xlink:href="#SvgjsG1011" transform="translate(140, 70) scale(2)" fill="rgba(27, 38, 59, 1)"></use>
            <use xlink:href="#SvgjsG1012" transform="translate(140, 140) scale(2)" fill="rgba(27, 38, 59, 1)"></use>
            <use xlink:href="#SvgjsG1013" transform="translate(140, 210) scale(0.07)" fill="rgba(27, 38, 59, 1)"></use>
            <use xlink:href="#SvgjsG1011" transform="translate(140, 280) scale(2)" fill="rgba(27, 38, 59, 1)"></use>
            <use xlink:href="#SvgjsG1012" transform="translate(140, 350) scale(2)" fill="rgba(27, 38, 59, 1)"></use>
            <use xlink:href="#SvgjsG1013" transform="translate(140, 420) scale(0.07)" fill="rgba(27, 38, 59, 1)"></use>
            <use xlink:href="#SvgjsG1011" transform="translate(140, 490) scale(2)" fill="rgba(27, 38, 59, 1)"></use>
            <use xlink:href="#SvgjsG1012" transform="translate(140, 560) scale(2)" fill="rgba(27, 38, 59, 1)"></use>
            <use xlink:href="#SvgjsG1013" transform="translate(140, 630) scale(0.07)" fill="rgba(27, 38, 59, 1)"></use>
            <use xlink:href="#SvgjsG1011" transform="translate(210, 0) scale(2)" fill="rgba(27, 38, 59, 1)"></use>
            <use xlink:href="#SvgjsG1012" transform="translate(210, 70) scale(2)" fill="rgba(27, 38, 59, 1)"></use>
            <use xlink:href="#SvgjsG1013" transform="translate(210, 140) scale(0.07)" fill="rgba(27, 38, 59, 1)"></use>
            <use xlink:href="#SvgjsG1011" transform="translate(210, 210) scale(2)" fill="rgba(27, 38, 59, 1)"></use>
            <use xlink:href="#SvgjsG1012" transform="translate(210, 280) scale(2)" fill="rgba(27, 38, 59, 1)"></use>
            <use xlink:href="#SvgjsG1013" transform="translate(210, 350) scale(0.07)" fill="rgba(27, 38, 59, 1)"></use>
            <use xlink:href="#SvgjsG1011" transform="translate(210, 420) scale(2)" fill="rgba(27, 38, 59, 1)"></use>
            <use xlink:href="#SvgjsG1012" transform="translate(210, 490) scale(2)" fill="rgba(27, 38, 59, 1)"></use>
            <use xlink:href="#SvgjsG1013" transform="translate(210, 560) scale(0.07)" fill="rgba(27, 38, 59, 1)"></use>
            <use xlink:href="#SvgjsG1011" transform="translate(210, 630) scale(2)" fill="rgba(27, 38, 59, 1)"></use>
            <use xlink:href="#SvgjsG1012" transform="translate(280, 0) scale(2)" fill="rgba(27, 38, 59, 1)"></use>
            <use xlink:href="#SvgjsG1013" transform="translate(280, 70) scale(0.07)" fill="rgba(27, 38, 59, 1)"></use>
            <use xlink:href="#SvgjsG1011" transform="translate(280, 140) scale(2)" fill="rgba(27, 38, 59, 1)"></use>
            <use xlink:href="#SvgjsG1012" transform="translate(280, 210) scale(2)" fill="rgba(27, 38, 59, 1)"></use>
            <use xlink:href="#SvgjsG1013" transform="translate(280, 280) scale(0.07)" fill="rgba(27, 38, 59, 1)"></use>
            <use xlink:href="#SvgjsG1011" transform="translate(280, 350) scale(2)" fill="rgba(27, 38, 59, 1)"></use>
            <use xlink:href="#SvgjsG1012" transform="translate(280, 420) scale(2)" fill="rgba(27, 38, 59, 1)"></use>
            <use xlink:href="#SvgjsG1013" transform="translate(280, 490) scale(0.07)" fill="rgba(27, 38, 59, 1)"></use>
            <use xlink:href="#SvgjsG1011" transform="translate(280, 560) scale(2)" fill="rgba(27, 38, 59, 1)"></use>
            <use xlink:href="#SvgjsG1012" transform="translate(280, 630) scale(2)" fill="rgba(27, 38, 59, 1)"></use>
            <use xlink:href="#SvgjsG1013" transform="translate(350, 0) scale(0.07)" fill="rgba(27, 38, 59, 1)"></use>
            <use xlink:href="#SvgjsG1011" transform="translate(350, 70) scale(2)" fill="rgba(27, 38, 59, 1)"></use>
            <use xlink:href="#SvgjsG1012" transform="translate(350, 140) scale(2)" fill="rgba(27, 38, 59, 1)"></use>
            <use xlink:href="#SvgjsG1013" transform="translate(350, 210) scale(0.07)" fill="rgba(27, 38, 59, 1)"></use>
            <use xlink:href="#SvgjsG1011" transform="translate(350, 280) scale(2)" fill="rgba(27, 38, 59, 1)"></use>
            <use xlink:href="#SvgjsG1012" transform="translate(350, 350) scale(2)" fill="rgba(27, 38, 59, 1)"></use>
            <use xlink:href="#SvgjsG1013" transform="translate(350, 420) scale(0.07)" fill="rgba(27, 38, 59, 1)"></use>
            <use xlink:href="#SvgjsG1011" transform="translate(350, 490) scale(2)" fill="rgba(27, 38, 59, 1)"></use>
            <use xlink:href="#SvgjsG1012" transform="translate(350, 560) scale(2)" fill="rgba(27, 38, 59, 1)"></use>
            <use xlink:href="#SvgjsG1013" transform="translate(350, 630) scale(0.07)" fill="rgba(27, 38, 59, 1)"></use>
            <use xlink:href="#SvgjsG1011" transform="translate(420, 0) scale(2)" fill="rgba(27, 38, 59, 1)"></use>
            <use xlink:href="#SvgjsG1012" transform="translate(420, 70) scale(2)" fill="rgba(27, 38, 59, 1)"></use>
            <use xlink:href="#SvgjsG1013" transform="translate(420, 140) scale(0.07)" fill="rgba(27, 38, 59, 1)"></use>
            <use xlink:href="#SvgjsG1011" transform="translate(420, 210) scale(2)" fill="rgba(27, 38, 59, 1)"></use>
            <use xlink:href="#SvgjsG1012" transform="translate(420, 280) scale(2)" fill="rgba(27, 38, 59, 1)"></use>
            <use xlink:href="#SvgjsG1013" transform="translate(420, 350) scale(0.07)" fill="rgba(27, 38, 59, 1)"></use>
            <use xlink:href="#SvgjsG1011" transform="translate(420, 420) scale(2)" fill="rgba(27, 38, 59, 1)"></use>
            <use xlink:href="#SvgjsG1012" transform="translate(420, 490) scale(2)" fill="rgba(27, 38, 59, 1)"></use>
            <use xlink:href="#SvgjsG1013" transform="translate(420, 560) scale(0.07)" fill="rgba(27, 38, 59, 1)"></use>
            <use xlink:href="#SvgjsG1011" transform="translate(420, 630) scale(2)" fill="rgba(27, 38, 59, 1)"></use>
            <use xlink:href="#SvgjsG1012" transform="translate(490, 0) scale(2)" fill="rgba(27, 38, 59, 1)"></use>
            <use xlink:href="#SvgjsG1013" transform="translate(490, 70) scale(0.07)" fill="rgba(27, 38, 59, 1)"></use>
            <use xlink:href="#SvgjsG1011" transform="translate(490, 140) scale(2)" fill="rgba(27, 38, 59, 1)"></use>
            <use xlink:href="#SvgjsG1012" transform="translate(490, 210) scale(2)" fill="rgba(27, 38, 59, 1)"></use>
            <use xlink:href="#SvgjsG1013" transform="translate(490, 280) scale(0.07)" fill="rgba(27, 38, 59, 1)"></use>
            <use xlink:href="#SvgjsG1011" transform="translate(490, 350) scale(2)" fill="rgba(27, 38, 59, 1)"></use>
            <use xlink:href="#SvgjsG1012" transform="translate(490, 420) scale(2)" fill="rgba(27, 38, 59, 1)"></use>
            <use xlink:href="#SvgjsG1013" transform="translate(490, 490) scale(0.07)" fill="rgba(27, 38, 59, 1)"></use>
            <use xlink:href="#SvgjsG1011" transform="translate(490, 560) scale(2)" fill="rgba(27, 38, 59, 1)"></use>
            <use xlink:href="#SvgjsG1012" transform="translate(490, 630) scale(2)" fill="rgba(27, 38, 59, 1)"></use>
            <use xlink:href="#SvgjsG1013" transform="translate(560, 0) scale(0.07)" fill="rgba(27, 38, 59, 1)"></use>
            <use xlink:href="#SvgjsG1011" transform="translate(560, 70) scale(2)" fill="rgba(27, 38, 59, 1)"></use>
            <use xlink:href="#SvgjsG1012" transform="translate(560, 140) scale(2)" fill="rgba(27, 38, 59, 1)"></use>
            <use xlink:href="#SvgjsG1013" transform="translate(560, 210) scale(0.07)" fill="rgba(27, 38, 59, 1)"></use>
            <use xlink:href="#SvgjsG1011" transform="translate(560, 280) scale(2)" fill="rgba(27, 38, 59, 1)"></use>
            <use xlink:href="#SvgjsG1012" transform="translate(560, 350) scale(2)" fill="rgba(27, 38, 59, 1)"></use>
            <use xlink:href="#SvgjsG1013" transform="translate(560, 420) scale(0.07)" fill="rgba(27, 38, 59, 1)"></use>
            <use xlink:href="#SvgjsG1011" transform="translate(560, 490) scale(2)" fill="rgba(27, 38, 59, 1)"></use>
            <use xlink:href="#SvgjsG1012" transform="translate(560, 560) scale(2)" fill="rgba(27, 38, 59, 1)"></use>
            <use xlink:href="#SvgjsG1013" transform="translate(560, 630) scale(0.07)" fill="rgba(27, 38, 59, 1)"></use>
            <use xlink:href="#SvgjsG1011" transform="translate(630, 0) scale(2)" fill="rgba(27, 38, 59, 1)"></use>
            <use xlink:href="#SvgjsG1012" transform="translate(630, 70) scale(2)" fill="rgba(27, 38, 59, 1)"></use>
            <use xlink:href="#SvgjsG1013" transform="translate(630, 140) scale(0.07)" fill="rgba(27, 38, 59, 1)"></use>
            <use xlink:href="#SvgjsG1011" transform="translate(630, 210) scale(2)" fill="rgba(27, 38, 59, 1)"></use>
            <use xlink:href="#SvgjsG1012" transform="translate(630, 280) scale(2)" fill="rgba(27, 38, 59, 1)"></use>
            <use xlink:href="#SvgjsG1013" transform="translate(630, 350) scale(0.07)" fill="rgba(27, 38, 59, 1)"></use>
            <use xlink:href="#SvgjsG1011" transform="translate(630, 420) scale(2)" fill="rgba(27, 38, 59, 1)"></use>
            <use xlink:href="#SvgjsG1012" transform="translate(630, 490) scale(2)" fill="rgba(27, 38, 59, 1)"></use>
            <use xlink:href="#SvgjsG1013" transform="translate(630, 560) scale(0.07)" fill="rgba(27, 38, 59, 1)"></use>
            <use xlink:href="#SvgjsG1011" transform="translate(630, 630) scale(2)" fill="rgba(27, 38, 59, 1)"></use>
        </g>
    </defs>
</svg>